#!OML:ASF F:\VICON\USERDATA\INSTALL\rory3\rory3.ASF
:FULLY-SPECIFIED
:DEGREES
1
root -0.9195228002743654 17.20670866825285 -32.30618303133551 6.01007914804002 -2.1114721609456635 -6.517096352247212
lfemur -25.867794949087916 7.189132366514347 -10.752515547996891
ltibia 104.04897964979126
lfoot 7.526894636081978 -13.78738878188667
ltoes 0.3751240474988311
rfemur -22.146599073386437 3.958683356427356 34.87149021933754
rtibia 48.9178049234988
rfoot -22.272580836753974 -18.484581711073723
rtoes -5.583334221736617
lowerback 17.335690025605096 0.36203096934546536 3.1754954991539925
upperback 0.49069490249288994 1.4043405055116098 3.113590518696204
thorax -9.227407659588131 0.6066189901003327 1.2207288629996393
lowerneck -21.859892156879756 -3.158843294462085 -1.3040921634918787
upperneck 12.282209262368198 -4.1814330972735245 1.7646185550336342
head 7.38848795643128 -1.8849426092278074 0.2728408668031194
lclavicle -1.7288340304151365e-15 1.7836277248731864e-15
lhumerus -52.440498890296986 -11.167904750783729 98.16349818227859
lradius 97.5963114127503
lwrist 29.294713483797352
lhand -25.807695747724665 2.8377972004248417
lfingers 7.12502
lthumb 0.7315152523915448 32.81629715392316
rclavicle -1.7288340304151365e-15 1.7836277248731864e-15
rhumerus -37.91551225902701 10.290996909076613 -93.68590798231729
rradius 101.15801384259687
rwrist -7.89362817309049
rhand -21.34317626838579 39.76360022461716
rfingers 7.12502
rthumb 5.042993736245258 9.84360131207351
2
root -0.9317864807445014 17.324406757445153 -31.33178342903222 5.571961412588463 -0.4888423932288072 -6.663795843244873
lfemur -30.74169271104479 6.46410403705175 -10.839515414398166
ltibia 103.34597992818101
lfoot 6.358655445314589 -12.346191173993912
ltoes 3.695235720447636
rfemur -17.29310116646132 2.8147758309643525 35.17218969897016
rtibia 47.048105568288136
rfoot -21.217881568561573 -18.62068150866293
rtoes -9.811891436156277
lowerback 17.857887154327333 0.4099596733253613 3.3343850941279407
upperback -0.10617371918728202 1.6016997709727627 3.491697680200995
thorax -10.192794284078323 0.6932301964088016 1.4985179702740874
lowerneck -20.121202301944475 -3.6067899717102327 -2.1042189074850457
upperneck 12.451708206116088 -4.573051121488341 1.6711894107001968
head 7.181712995057394 -2.133499854644527 0.34486309216982086
lclavicle -1.7288340496761042e-15 1.7836277309036644e-15
lhumerus -55.90339657118727 -11.191304713364385 99.5953933343123
lradius 99.38170949309888
lwrist 30.605009331236253
lhand -26.364792684994224 3.074176415461179
lfingers 7.12502
lthumb 0.19339331576445828 33.05379636258412
rclavicle -1.7288340496761042e-15 1.7836277309036644e-15
rhumerus -38.57431163127937 10.736496140660686 -93.76500778094643
rradius 104.9830073367991
rwrist -11.383395464302344
rhand -22.007572908685606 40.160197696151116
rfingers 7.12502
rthumb 4.401477097989274 10.225898826444805
3
root -0.9290635516903457 17.4997039115268 -30.32158384134052 5.286062890344317 0.25938465518076903 -7.012274634130128
lfemur -34.54019096681395 6.248954532777621 -11.123314978589956
ltibia 100.76998094828285
lfoot 4.135516985269942 -10.75809380992611
ltoes -2.9559576144570734
rfemur -12.361503293216888 2.6397562095723393 35.46558919123555
rtibia 44.98460627991183
rfoot -19.016883095733725 -17.169183667364297
rtoes -13.724588858649959
lowerback 18.06878599470941 0.9455073656439356 4.187212920181378
upperback -0.8950752887448951 2.524546336289064 3.228789653882665
thorax -11.152680984770406 1.0564068683146552 0.4850842271267609
lowerneck -18.114314011917664 -4.074286503942645 -1.7175653133235271
upperneck 12.450908211101352 -5.30123744765398 1.3894319911626898
head 6.843841228208525 -2.506135724986039 0.14237108158888906
lclavicle -1.7288340650571737e-15 1.783627716430514e-15
lhumerus -59.622194080700915 -12.210803083064542 100.32999084718608
lradius 100.8410079240683
lwrist 31.643706039421247
lhand -25.21049903091012 2.5463781681636917
lfingers 7.12502
lthumb 1.3082309693153737 32.52209813418399
rclavicle -1.7288340650571737e-15 1.783627716430514e-15
rhumerus -40.07091020522119 9.603308095231363 -94.24490655922868
rradius 109.10200033094789
rwrist -12.476091484999118
rhand -20.173582182752632 39.83049979810587
rfingers 7.12502
rthumb 6.172257818554955 9.940420682571624
4
root -0.8916915254174853 17.71290045031863 -29.236484284219003 5.439132099158277 -0.2494570176144243 -7.286443682847439
lfemur -36.76318994603604 6.8735330936864845 -11.887413805224677
ltibia 96.27428272859048
lfoot -0.9779194726817948 -8.212788034637784
ltoes -14.590395955701075
rfemur -7.8174452528456015 3.299724781907417 35.30578946777267
rtibia 42.61140709833941
rfoot -14.866185975712531 -14.669787384524593
rtoes -18.336185820740585
lowerback 16.287095791254007 1.7602143338024336 4.831611277543149
upperback -0.6220002069083679 3.580552406007506 3.108410557582785
thorax -9.759420288510103 1.552202324922734 -0.23175946916634038
lowerneck -18.918909317192245 -4.4418537774242886 -1.9507814495422962
upperneck 13.180403665166745 -5.742645220670329 1.4156217513049627
head 7.230471806918263 -2.7147434131353085 0.11160483967151025
lclavicle -1.7288339788678866e-15 1.783627796836898e-15
lhumerus -61.30109295633886 -11.806003730387129 100.3889906474305
lradius 101.9600067209262
lwrist 31.841105413827442
lhand -27.599385897618532 1.66599109173657
lfingers 7.12502
lthumb -0.9990398960573319 31.643401061971854
rclavicle -1.7288339788678866e-15 1.783627796836898e-15
rhumerus -39.09661113359785 10.053097319415885 -94.18540671070234
rradius 111.78499576753471
rwrist -12.708990636843435
rhand -20.990378052404804 40.94879266854566
rfingers 7.12502
rthumb 5.383631951196476 11.037193551554495
5
root -0.8657172021777787 17.984696037765254 -28.179784715506194 4.971794514738631 0.8585100924900451 -7.07136442910663
lfemur -38.34458921987387 5.443556388495082 -13.138611883860111
ltibia 90.004285211525
lfoot 0.7176153528309024 -6.813020357979401
ltoes -4.352376215119765
rfemur -3.309517196893175 2.462996591944348 34.711390496393804
rtibia 39.91510802819209
rfoot -8.79832018592707 -11.239692485841525
rtoes -21.183883944807125
lowerback 16.49329465747869 1.74124445096535 5.052170715314269
upperback -1.129809780300644 3.6484721532213356 3.0982306340046737
thorax -10.427591030950394 1.5503623417840493 -0.3951619440429247
lowerneck -18.188513578971317 -4.61102252257457 -2.4951724304079934
upperneck 14.112897854222238 -5.866094597845443 1.4099518032329246
head 7.433486859912396 -2.8029524355774083 0.1851260281036442
lclavicle -1.7288340625630351e-15 1.7836277124101884e-15
lhumerus -63.69409135374293 -9.76854698852419 100.1829913448822
lradius 102.9270056812136
lwrist 32.68750273144347
lhand -26.1354939456011 -0.37361813516740017
lfingers 7.12502
lthumb 0.41492805463111027 29.605707851494245
rclavicle -1.7288340625630351e-15 1.7836277124101884e-15
rhumerus -39.97891029288482 11.171395390528069 -94.2672065024579
rradius 114.21199163954225
rwrist -11.502895029117264
rhand -20.314281471268867 40.88799305616728
rfingers 7.12502
rthumb 6.036348530761319 10.993993832431187
